<?xml version="1.0" encoding="utf-8"?>
<!-- Generator: Adobe Illustrator 23.0.2, SVG Export Plug-In . SVG Version: 6.00 Build 0)  -->
<svg version="1.1" id="Layer_1" xmlns="http://www.w3.org/2000/svg" xmlns:xlink="http://www.w3.org/1999/xlink" x="0px" y="0px"
	 viewBox="0 0 140.72 141.36" style="enable-background:new 0 0 140.72 141.36;" xml:space="preserve">
<style type="text/css">
	.st0{fill:#00C0D4;}
	.st1{fill:#B1A097;}
	.st2{fill:#686565;}
	.st3{fill:#D2D2D2;}
	.st4{fill:#FF7E00;}
	.st5{fill:#FF8D00;}
	.st6{fill:#67D0D5;}
	.st7{fill:#37C5CB;}
	.st8{fill:#00C9DB;}
	.st9{fill-rule:evenodd;clip-rule:evenodd;fill:#00C9DB;}
	.st10{fill:#00D2E1;}
	.st11{fill:none;}
	.st12{clip-path:url(#SVGID_2_);}
	.st13{clip-path:url(#SVGID_4_);}
	.st14{clip-path:url(#SVGID_6_);}
	.st15{fill:#01C9DB;}
	.st16{clip-path:url(#SVGID_8_);}
	.st17{fill:#00C8DA;}
	.st18{fill:#B3AAA0;}
	.st19{fill:#2BCADB;}
	.st20{fill:#B6122A;}
	.st21{fill:#E6E3DC;}
	.st22{fill:#D37D22;}
	.st23{fill:#EC8A00;}
	.st24{fill:#E2DED6;}
	.st25{fill:#B8ABA1;}
	.st26{fill:#3BC1D3;}
	.st27{fill:#359EBB;}
	.st28{fill:#89DAE4;}
	.st29{fill:#CBEEF3;}
	.st30{fill:#FFFFFF;}
	.st31{fill:#D91A32;}
	.st32{fill:#F18122;}
	.st33{fill:#E55F2B;}
	.st34{fill:#69564D;}
	.st35{fill:#E8F1FA;}
	.st36{fill:#C7BCB5;}
	.st37{fill:#85D8E3;}
	.st38{fill:#F6911E;}
	.st39{fill:#96857D;}
	.st40{fill:#EFEDE9;}
	.st41{fill:#9A9187;}
	.st42{fill:#E6F0F9;}
	.st43{fill:#B8ABA0;}
	.st44{fill:#817D75;}
	.st45{fill:#C6E5F8;}
	.st46{fill:#3CB9CF;}
	.st47{clip-path:url(#SVGID_10_);}
	.st48{fill:#F0F5FB;}
	.st49{fill:#D5EAF9;}
	.st50{clip-path:url(#SVGID_12_);}
	.st51{fill:#40BAD3;}
	.st52{clip-path:url(#SVGID_14_);}
	.st53{clip-path:url(#SVGID_16_);}
	.st54{clip-path:url(#SVGID_18_);}
	.st55{fill:#12316F;}
	.st56{fill:#6CD0DE;}
	.st57{fill:#F5AA6B;}
	.st58{fill:#EA7228;}
	.st59{fill:#E6622C;}
	.st60{fill:#FAB56D;}
	.st61{fill:#F08125;}
	.st62{fill-rule:evenodd;clip-rule:evenodd;fill:#E2DED6;}
	.st63{fill:#574239;}
	.st64{fill:#B2A9A1;}
	.st65{fill:#BAAFAA;}
	.st66{fill:#BDE0DE;}
	.st67{fill:#8CCDD2;}
	.st68{fill:#C7E6F9;}
	.st69{fill:#726059;}
	.st70{fill:#F8A94F;}
	.st71{fill:#87817D;}
	.st72{fill:#C1B8B0;}
	.st73{fill:#D7D0CB;}
	.st74{fill:#D9F6F8;}
	.st75{fill:#A8A19A;}
	.st76{fill:#9A9188;}
	.st77{fill:#827D75;}
	.st78{fill:#F1EFEB;}
	.st79{fill:#E14D5F;}
	.st80{fill:#B5A9A3;}
	.st81{fill:#32A1BD;}
	.st82{fill:#A2D9F5;}
	.st83{fill:#BAC1C9;}
	.st84{fill:#72D2DF;}
	.st85{fill:#F9B66A;}
	.st86{fill:#F7A03D;}
	.st87{fill:#AEE5EC;}
	.st88{fill:#2EB1C3;}
	.st89{fill:#FBD09F;}
	.st90{fill:#F9B466;}
	.st91{fill:#E77180;}
	.st92{fill:#DE384C;}
	.st93{fill:#F7F6F4;}
	.st94{fill:#63779F;}
	.st95{fill:#506794;}
	.st96{fill:#2C487F;}
	.st97{fill:#DF9035;}
	.st98{fill:#F49D1C;}
	.st99{fill:#96DEE7;}
	.st100{fill:#70D1DF;}
	.st101{fill:#E6E3E0;}
	.st102{fill:#D4CDC8;}
	.st103{fill:#D6D0CB;}
	.st104{fill:#C5BCB6;}
	.st105{fill:#E7F0F9;}
	.st106{fill:#B7AAA0;}
	.st107{fill:#EE9EA8;}
	.st108{fill:#E56373;}
	.st109{fill:#999087;}
	.st110{fill:#DCD5D1;}
	.st111{fill:#FACD99;}
	.st112{fill:#F8AC56;}
	.st113{fill:#F3F1EE;}
</style>
<g>
	<g>
		<g>
			<g>
				<g>
					<g>
						<path class="st18" d="M98.56,57.22c-9.15,0-20.04-4.01-20.04-23.13l0.01-11.35C79.2,3.95,89.79,0,98.56,0
							c8.74,0,19.32,3.95,20.02,22.74c0.01,0.06,0.02,0.3,0.02,11.35C118.6,53.21,107.71,57.22,98.56,57.22"/>
					</g>
					<g>
						<path class="st18" d="M136.86,112.43H61.48c-1.46,0-2.67-1.14-2.76-2.61c-0.04-0.73-1.02-18.01-1.02-22.47
							c0-16.4,14.01-24.72,41.64-24.72c27.46,0,41.39,8.32,41.39,24.72c0,4.47-1.07,21.75-1.12,22.49
							C139.52,111.3,138.31,112.43,136.86,112.43"/>
					</g>
					<g>
						<path class="st19" d="M80.1,88.49c-4.81-2.08-10.65-3.49-17.68-4.26l-14.23,57.13h43.73c1.69,0,3.09-1.32,3.2-3.01
							c0.05-0.85,1.3-20.92,1.3-26.11C96.41,101.16,90.92,93.17,80.1,88.49"/>
					</g>
					<g>
						<path class="st0" d="M48.35,83.54C16.27,83.54,0,93.2,0,112.24c0,5.18,1.15,25.25,1.2,26.1c0.1,1.69,1.5,3.02,3.2,3.02h43.79
							l14.23-57.13C58.17,83.77,53.5,83.54,48.35,83.54"/>
					</g>
					<g>
						<rect x="20.44" y="102.82" class="st20" width="57.57" height="3.17"/>
					</g>
					<g>
						<rect x="20.44" y="109.36" class="st21" width="57.57" height="3.17"/>
					</g>
					<g>
						<rect x="20.44" y="115.89" class="st21" width="57.57" height="3.17"/>
					</g>
					<g>
						<path class="st22" d="M48.21,12.76c-17.82,0-22.05,13.92-22.46,25.63c-0.01,0.34-0.01,12.8-0.01,12.92
							c0,11.54,3.53,18.19,8.37,21.86l15.04-60.39C48.84,12.77,48.53,12.76,48.21,12.76"/>
					</g>
					<g>
						<path class="st23" d="M70.66,38.34c-0.43-11.46-4.55-25.07-21.52-25.56L34.11,73.17c4.19,3.18,9.36,4.15,14.1,4.15
							c10.25,0,22.47-4.51,22.47-26.01C70.68,42.94,70.67,38.58,70.66,38.34"/>
					</g>
				</g>
			</g>
		</g>
	</g>
</g>
<g>
	<rect x="-1161.98" y="-296.41" class="st11" width="1920.24" height="1080"/>
</g>
<g>
	<rect x="-1161.98" y="-296.41" class="st11" width="1920.24" height="1080"/>
</g>
<g>
	<rect x="-1161.98" y="-296.41" class="st11" width="1920.24" height="1080"/>
</g>
</svg>
